<?xml version="1.0" encoding="utf-8"?>
<!-- Generator: Adobe Illustrator 22.1.0, SVG Export Plug-In . SVG Version: 6.00 Build 0)  -->
<svg version="1.1" id="Capa_1" xmlns="http://www.w3.org/2000/svg" xmlns:xlink="http://www.w3.org/1999/xlink" x="0px" y="0px"
	 viewBox="0 0 53.5 53.2" style="enable-background:new 0 0 53.5 53.2;" xml:space="preserve">
<style type="text/css">
	.st0{fill:#241D48;}
</style>
<title>icn-rocket</title>
<path class="st0" d="M52,22.9c-0.5-0.8-1.4-1.4-2.3-1.6c0.6-1.2,0.6-2.7-0.2-3.9c-0.6-0.8-1.4-1.4-2.3-1.6c0.2-0.3,0.3-0.7,0.4-1
	c0.2-1,0-2-0.6-2.8c-0.5-0.8-1.4-1.4-2.3-1.6c0.6-1.2,0.6-2.7-0.2-3.9c-1.2-1.7-3.5-2.2-5.3-1.1l-3.8,2.5c-2-1-4.1-1.7-6.4-2.2
	c-0.7-1.1-1.5-2.1-2.4-2.9L25,1.3c-1.1-1.1-2.9-1.3-4.3-0.4c-1.6,1-2,3.2-1,4.7c0,0.1,0.1,0.1,0.1,0.2c-5.1,1-9.8,3.7-13.2,7.7
	C3,17.9,0.9,23.4,0.9,29.1c0,1.1,0.1,2.2,0.2,3.3c1.1,8.3,6.7,15.5,14.5,18.7c2.9,1.2,5.9,1.8,9.1,1.8c5,0,9.8-1.5,13.8-4.4
	c4-2.8,6.9-6.7,8.6-11.3c0.2-0.4-0.1-0.9-0.5-1c-0.4-0.2-0.9,0.1-1,0.5c-1.5,4.2-4.3,7.9-8,10.5c-3.8,2.7-8.2,4.1-12.9,4.1
	c-2.4,0-4.7-0.4-7-1.1l6.6-4.4c0,0,0,0,0,0c0,0,0,0,0,0l5.5-3.7h0c0.5-0.3,0.8-0.8,1-1.4c0.1-0.6,0-1.2-0.3-1.7l-0.1-0.1l1.1-0.7
	c0.8-0.5,1.7-0.7,2.6-0.6c1.3,0.2,2.6-0.1,3.8-0.8l8.9-5.9c-0.1,0.8-0.2,1.5-0.3,2.3c-0.1,0.4,0.2,0.9,0.7,1c0.1,0,0.1,0,0.1,0
	c0.4,0,0.7-0.3,0.8-0.7c0.2-1.2,0.4-2.5,0.4-3.7l2.5-1.7c0.8-0.6,1.4-1.4,1.6-2.4C52.8,24.7,52.6,23.7,52,22.9z M33.8,9l-2.5,1.7
	l-0.5-1.3c-0.2-0.6-0.4-1.1-0.7-1.6C31.4,8,32.6,8.4,33.8,9z M8,14.6c3.3-3.8,7.8-6.4,12.8-7.3c0.8,1.9,1,4.1,0.5,6.1l-2,8.6
	c-0.3-0.3-0.7-0.6-1.2-0.7c-0.6-0.1-1.2,0-1.7,0.3l-5.6,3.7c0,0,0,0,0,0c0,0,0,0,0,0l-8.1,5.4c0-0.6-0.1-1.2-0.1-1.7
	C2.5,23.8,4.5,18.7,8,14.6z M29.2,40.3c0,0.2-0.1,0.3-0.3,0.4h0l-4.9,3.2l-9-13.4c-0.3-0.4-0.8-0.5-1.1-0.2
	c-0.4,0.3-0.5,0.8-0.2,1.1l9,13.4l-6.9,4.6C8.9,46.4,4,40,2.8,32.6l8.1-5.4l0.9,1.4c0.2,0.2,0.4,0.4,0.7,0.4c0.2,0,0.3,0,0.5-0.1
	c0.4-0.3,0.5-0.8,0.2-1.1l-0.9-1.4l5-3.3c0.1-0.1,0.3-0.1,0.4-0.1c0.2,0,0.3,0.1,0.4,0.3l11,16.6C29.2,40,29.2,40.2,29.2,40.3z
	 M51,25.4c-0.1,0.6-0.4,1.1-0.9,1.4l-2.9,1.9c0,0,0,0,0,0l-10.2,6.8c-0.8,0.5-1.7,0.7-2.6,0.6c-1.3-0.2-2.6,0.1-3.8,0.8l-1.1,0.7
	l-9-13.6l2.3-10.1c0.6-2.6,0.3-5.3-0.9-7.7c0,0,0,0,0-0.1c-0.2-0.4-0.5-0.9-0.7-1.3c-0.5-0.8-0.3-1.9,0.5-2.5
	c0.7-0.5,1.6-0.4,2.2,0.2L25.5,4c1.7,1.6,3,3.7,3.8,5.9l0.8,2.3c0,0,0,0,0,0c0,0,0,0,0,0c0,0,0,0,0,0c0,0,0,0.1,0.1,0.1
	c0.2,0.4,0.8,0.5,1.1,0.2l8.7-5.8c1-0.7,2.3-0.4,3,0.6c0.7,1,0.4,2.3-0.6,3l-0.8,0.5c0,0,0,0,0,0L40,12c0,0,0,0,0,0c0,0,0,0,0,0
	c-0.3,0.3-0.4,0.7-0.2,1.1c0.2,0.4,0.8,0.5,1.1,0.2l1.7-1.1c0.5-0.3,1.1-0.4,1.6-0.3s1.1,0.4,1.4,0.9c0.3,0.5,0.4,1.1,0.3,1.6
	c-0.1,0.6-0.4,1.1-0.9,1.4l-2.4,1.6c-0.4,0.2-0.5,0.8-0.2,1.1c0.2,0.2,0.4,0.4,0.7,0.4c0.2,0,0.3,0,0.5-0.1l0.4-0.3l1.3-0.9
	c1-0.7,2.3-0.4,3,0.6c0.7,1,0.4,2.3-0.6,3l-1.2,0.8c0,0,0,0,0,0l-1.2,0.8c-0.4,0.2-0.5,0.8-0.2,1.1c0.2,0.2,0.4,0.4,0.7,0.4
	c0.2,0,0.3,0,0.5-0.1l0.4-0.3c0,0,0,0,0,0l1.3-0.9c0.5-0.3,1.1-0.4,1.6-0.3c0.6,0.1,1.1,0.4,1.4,0.9C51,24.2,51.1,24.8,51,25.4z"/>
</svg>
