<?xml version="1.0" encoding="utf-8"?>
<!-- Generator: Adobe Illustrator 22.1.0, SVG Export Plug-In . SVG Version: 6.00 Build 0)  -->
<svg version="1.1" id="Capa_1" xmlns="http://www.w3.org/2000/svg" xmlns:xlink="http://www.w3.org/1999/xlink" x="0px" y="0px"
	 viewBox="0 0 56.3 56.5" style="enable-background:new 0 0 56.3 56.5;" xml:space="preserve">
<style type="text/css">
	.st0{fill:#241D48;}
</style>
<title>icn-cheap</title>
<g id="_x30_41---Raise-Money">
	<path id="Shape" class="st0" d="M28.3,15.4c-3-0.4-4.7-0.7-4.7-3.2c0-2.2,2.7-3.2,4.6-3.2c3.5,0,4.7,1.9,4.7,2
		c0.2,0.3,0.5,0.5,0.8,0.5c0.3,0,0.6-0.2,0.8-0.5s0.2-0.6,0-0.9c-0.1-0.1-1.5-2.6-5.4-2.9V5.2c0-0.5-0.4-0.9-0.9-0.9
		s-0.9,0.4-0.9,0.9v1.9c-2.8,0.3-5.5,2-5.5,5c0,4.3,3.7,4.7,6.3,5.1c3,0.4,4.7,0.7,4.7,3.2c0,4.5-8,3.4-9.5,2.1
		c-0.4-0.4-0.9-0.4-1.3,0c-0.4,0.4-0.4,0.9,0,1.3c0.2,0.2,1.6,1.4,5.3,1.6v1.8c0,0.5,0.4,0.9,0.9,0.9s0.9-0.4,0.9-0.9v-1.8
		c4-0.3,5.5-2.8,5.5-5C34.6,16.2,30.9,15.7,28.3,15.4L28.3,15.4z"/>
	<path id="Shape_1_" class="st0" d="M29.1,54.9V44.8c0-0.5-0.4-0.9-0.9-0.9s-0.9,0.4-0.9,0.9v10.1c0,0.5,0.4,0.9,0.9,0.9
		S29.1,55.5,29.1,54.9z"/>
	<path id="Shape_2_" class="st0" d="M33.7,50.3V37.5c0-0.5-0.4-0.9-0.9-0.9s-0.9,0.4-0.9,0.9v12.9c0,0.5,0.4,0.9,0.9,0.9
		S33.7,50.9,33.7,50.3z"/>
	<path id="Shape_3_" class="st0" d="M24.5,50.3v-8.3c0-0.5-0.4-0.9-0.9-0.9s-0.9,0.4-0.9,0.9v8.3c0,0.5,0.4,0.9,0.9,0.9
		S24.5,50.9,24.5,50.3z"/>
	<path id="Shape_4_" class="st0" d="M42.4,9.8c-2.6-5.5-8.1-9.1-14.2-9.1S16.5,4.2,14,9.8C2.9,13.5,0.6,19.4,0.6,23.7v28.5
		c0,2,1.6,3.7,3.7,3.7s3.7-1.6,3.7-3.7v-2.8h0.9c1.2,0,2.4-0.5,3.3-1.3c0.9-0.9,1.3-2,1.3-3.3V43h0.9c2.5,0,4.6-2.1,4.6-4.6
		c0-3.3-0.2-6.5,0.9-8.8c5,3.2,11.5,3.2,16.5,0c1.2,2.3,0.9,5.3,0.9,8.8c0,2.5,2.1,4.6,4.6,4.6h0.9v1.8c0,2.5,2.1,4.6,4.6,4.6h0.9
		v2.8c0,2,1.6,3.7,3.7,3.7s3.7-1.6,3.7-3.7V23.7C55.8,19.4,53.5,13.5,42.4,9.8L42.4,9.8z M17.1,38.4c0,1.5-1.2,2.8-2.8,2.8h-0.9
		V26.4c0-0.5-0.4-0.9-0.9-0.9s-0.9,0.4-0.9,0.9v18.4c0,1.5-1.2,2.8-2.8,2.8H7.9V31c0-0.5-0.4-0.9-0.9-0.9S6.1,30.5,6.1,31v21.2
		c0,1-0.8,1.8-1.8,1.8s-1.8-0.8-1.8-1.8V23.7c0-5,3.6-8.9,10.7-11.6c-1.7,6,0.3,12.5,5.3,16.5C16.9,31.3,17.1,35,17.1,38.4z
		 M14.4,16.3c0-7.6,6.2-13.8,13.8-13.8S42,8.7,42,16.3s-6.2,13.8-13.8,13.8c-3.7,0-7.2-1.5-9.8-4S14.4,20,14.4,16.3L14.4,16.3z
		 M53.9,52.2c0,1-0.8,1.8-1.8,1.8s-1.8-0.8-1.8-1.8V31c0-0.5-0.4-0.9-0.9-0.9s-0.9,0.4-0.9,0.9v16.6h-0.9c-1.5,0-2.8-1.2-2.8-2.8
		V26.4c0-0.5-0.4-0.9-0.9-0.9s-0.9,0.4-0.9,0.9v14.7H42c-1.5,0-2.8-1.2-2.8-2.8c0-3.4,0.3-7.1-1.3-9.9c4.9-3.9,7-10.4,5.3-16.5
		c7.1,2.7,10.7,6.6,10.7,11.6V52.2z"/>
</g>
</svg>
