<?xml version="1.0" encoding="utf-8"?>
<!-- Generator: Adobe Illustrator 22.1.0, SVG Export Plug-In . SVG Version: 6.00 Build 0)  -->
<svg version="1.1" id="Capa_1" xmlns="http://www.w3.org/2000/svg" xmlns:xlink="http://www.w3.org/1999/xlink" x="0px" y="0px"
	 viewBox="0 0 47.2 53.3" style="enable-background:new 0 0 47.2 53.3;" xml:space="preserve">
<style type="text/css">
	.st0{fill:#241D48;}
</style>
<title>icn-secure</title>
<g>
	<path class="st0" d="M41.1,6.2c-1.4-1.4-2.4-3.1-2.8-5l-0.2-0.8H9.2L9,1.2c-0.5,1.9-1.4,3.6-2.8,5C4.8,7.6,3,8.6,1.1,9.1L0.3,9.3
		v10.3c0,7.2,2.2,14.2,6.3,20.2c4.1,6,9.9,10.4,16.7,13l0.4,0.1l0.4-0.1c6.8-2.6,12.5-7,16.7-13c4.1-6,6.3-12.9,6.3-20.2V9.3
		l-0.8-0.2C44.3,8.6,42.5,7.6,41.1,6.2z M44.8,19.6c0,6.8-2,13.4-5.9,18.9c-3.8,5.4-9,9.6-15.1,12c-0.1,0-0.1,0-0.2,0s-0.1,0-0.2,0
		c-6.1-2.4-11.3-6.6-15.1-12c-3.9-5.6-5.9-12.1-5.9-18.9v-8.3c0-0.2,0.1-0.4,0.3-0.5c1.8-0.6,3.5-1.7,4.9-3.1c1.4-1.4,2.4-3,3-4.9
		c0.1-0.2,0.3-0.3,0.5-0.3h24.9c0.2,0,0.4,0.1,0.5,0.3c0.6,1.8,1.7,3.5,3.1,4.9c1.4,1.4,3,2.4,4.9,3.1c0.2,0.1,0.3,0.3,0.3,0.5V19.6
		z"/>
	<path class="st0" d="M10.6,10.7c-1,1-2.2,1.9-3.5,2.7l-0.5,0.3v5.9c0,6,1.8,11.7,5.2,16.6c2.9,4.2,6.8,7.5,11.4,9.7l0.5,0.2
		l0.5-0.2c4.6-2.2,8.5-5.5,11.4-9.7c3.4-4.9,5.2-10.6,5.2-16.6v-5.9l-0.5-0.3c-1.3-0.7-2.4-1.6-3.5-2.7c-1-1-1.9-2.2-2.7-3.5l0,0
		l-0.3-0.5H13.5l-0.3,0.5C12.5,8.5,11.6,9.6,10.6,10.7z M14.6,9.1c0.1-0.1,0.3-0.2,0.4-0.2h17.2c0.2,0,0.3,0.1,0.4,0.2
		c0.7,1.1,1.6,2.2,2.5,3.1s2,1.8,3.1,2.5c0.1,0.1,0.2,0.3,0.2,0.4v4.4c0,5.5-1.7,10.8-4.8,15.4c-2.5,3.7-5.9,6.7-9.9,8.7
		c-0.1,0-0.1,0.1-0.2,0.1s-0.2,0-0.2-0.1c-3.9-2-7.4-5-9.9-8.7c-3.1-4.5-4.8-9.9-4.8-15.4v-4.4c0-0.2,0.1-0.3,0.2-0.4
		c1.1-0.7,2.2-1.6,3.1-2.5C13,11.2,13.9,10.2,14.6,9.1z"/>
	<path class="st0" d="M24.7,28.9v-1.3c0-0.2,0.2-0.4,0.4-0.5c2.5-0.7,4.3-2.9,4.3-5.6c0-3.2-2.6-5.7-5.7-5.7s-5.7,2.6-5.7,5.7
		c0,2.6,1.8,4.9,4.3,5.6c0.2,0.1,0.4,0.3,0.4,0.5V29L24.7,28.9z M20,21.5c0-2,1.6-3.6,3.6-3.6s3.6,1.6,3.6,3.6c0,2-1.6,3.6-3.6,3.6
		S20,23.5,20,21.5z"/>
	<path class="st0" d="M22.6,28.5v3.9c0,0.2,0.2,0.4,0.4,0.4h1.4c0.2,0,0.4-0.2,0.4-0.4v-3.9c0-0.2-0.2-0.4-0.4-0.4h-1.4
		C22.7,28.1,22.6,28.3,22.6,28.5z"/>
</g>
</svg>
